# xmcd
#
# Track frame offsets: 
#        150
#        28447
#        43545
#        70633
#        90604
#        115659
#        132514
#        147405
#        162685
#        180050
#        195875
#        211938
#        229310
#        243271
#        267486
#        284007
#
# Disc length: 4068 seconds
#
# Revision: 1
# Processed by: cddbd v1.5.2PL0 Copyright (c) Steve Scherf et al.
# Submitted via: ExactAudioCopy v1.0b3
#
DISCID=ea0fe210
DTITLE=Miles Davis - Tempus Fugit
DYEAR=2004
DGENRE=Jazz
TTITLE0=The Serpent's Tooth
TTITLE1=Tasty Pudding
TTITLE2=Floppy
TTITLE3=Willie The Waiter
TTITLE4=For Adults Only
TTITLE5=Ray's Idea
TTITLE6=Kelo
TTITLE7=Enigma
TTITLE8=Tempus Fugit
TTITLE9=I Waited For You
TTITLE10=C.T.A.
TTITLE11=Tune Up
TTITLE12=Smooch
TTITLE13=Well You Needn't
TTITLE14=Take Off
TTITLE15=Weirdo
EXTD=YEAR: 1953
EXTT0=
EXTT1=
EXTT2=
EXTT3=
EXTT4=
EXTT5=
EXTT6=
EXTT7=
EXTT8=
EXTT9=
EXTT10=
EXTT11=
EXTT12=
EXTT13=
EXTT14=
EXTT15=
PLAYORDER=
